<svg width="220" height="211" viewBox="0 0 220 211" fill="none" xmlns="http://www.w3.org/2000/svg">
<path fill-rule="evenodd" clip-rule="evenodd" d="M218.642 105.708C218.642 82.3213 210.385 59.7703 195.175 41.3951L194.306 40.5589C193.871 40.1421 193.871 39.7227 193.437 39.3059L186.484 32.2049C166.059 12.1599 139.116 1.30247 110 1.30247H109.565H109.131C80.4493 1.71927 53.9406 12.1599 33.5159 31.7881L26.1283 39.3059C25.6937 39.7227 25.6937 40.1421 25.2591 40.5589L24.39 40.9757C9.6147 59.3535 1.35791 82.3213 1.35791 105.708C1.35791 129.096 9.6147 151.646 24.8246 170.022L25.6937 170.858C26.1283 171.275 26.1283 171.694 26.5628 172.111L33.5159 179.209C53.9406 198.84 80.4493 209.698 109.131 209.698H109.565H110C138.681 209.698 166.059 198.84 186.484 179.212L193.437 171.694C193.871 171.277 193.871 170.858 194.306 170.441L195.175 169.605C210.385 152.066 218.642 129.096 218.642 105.708ZM174.751 37.6362C174.316 37.6362 173.881 38.0529 173.447 38.0529C172.578 38.4697 171.709 38.8891 171.274 38.8891C169.536 39.7253 167.363 40.1421 165.19 40.9783C164.755 40.9783 164.321 41.3951 163.886 41.3951C161.279 42.2313 159.106 42.6481 156.499 43.4842C156.064 43.4842 155.195 43.901 154.76 43.901C150.849 33.8772 146.069 25.109 140.42 18.4247C153.022 22.1837 164.755 28.8653 174.751 37.6362ZM109.131 13.4128C121.299 13.4128 133.467 25.5232 142.158 46.4044C132.163 48.0741 121.299 48.9103 110 48.9103C98.7011 48.9103 87.4024 48.0767 76.9727 46.4044C85.2295 25.9426 97.3974 13.8322 109.131 13.4128ZM78.2764 18.8441C73.0616 25.5258 68.2814 33.8798 64.3703 43.901H63.5011C60.8937 43.0648 58.2863 42.6481 56.1135 41.8119C55.6789 41.8119 55.2443 41.3951 54.8098 41.3951C53.0715 40.5589 50.8987 39.7253 49.1604 38.8891C48.2912 38.4723 47.8567 38.4723 46.9875 38.0529C46.553 37.6362 46.1184 37.6362 45.2493 37.2168C55.2443 29.2821 66.1085 22.6004 78.2764 18.8415V18.8441ZM45.2493 173.781C45.6838 173.781 46.1184 173.364 46.553 173.364C47.4221 172.947 47.8567 172.947 48.7258 172.528C50.4641 171.691 52.6369 171.275 54.8098 170.439C55.2443 170.439 55.6789 170.022 56.1135 170.022C58.7209 169.188 60.8937 168.769 63.5011 167.933H64.3703C68.2814 177.54 73.0616 186.308 78.2764 192.989C66.1085 188.814 54.8098 182.135 45.2493 173.781ZM109.565 198.004C97.3974 197.587 85.2295 185.894 76.9727 165.429C87.4024 163.759 98.7011 162.923 110 162.923C121.299 162.923 131.728 163.759 142.158 165.429C133.901 185.894 121.299 198.004 109.565 198.004ZM140.42 192.992C146.069 186.31 150.849 177.54 154.76 167.516C155.195 167.516 156.064 167.933 156.499 167.933C159.106 168.769 161.713 169.186 163.886 170.022C164.321 170.022 164.755 170.439 165.19 170.439C167.363 171.275 169.101 171.691 171.274 172.528C172.143 172.944 172.578 172.944 173.447 173.364C173.881 173.364 174.316 173.781 175.185 174.197C164.755 182.551 153.022 189.233 140.42 192.992ZM184.311 164.176C183.007 164.176 182.138 163.759 180.834 163.34C179.531 162.921 177.792 162.087 176.489 161.67C176.054 161.67 175.62 161.253 175.185 161.253C169.97 159.164 164.321 157.914 158.671 156.242C159.975 151.23 161.279 146.218 162.148 141.206H149.111C148.242 145.801 147.373 149.977 146.069 153.736C134.77 151.646 122.602 150.813 110 150.813C96.9628 150.813 84.7949 152.066 73.0616 154.155C71.7579 149.979 70.8888 145.804 70.0196 141.208H56.9826C57.8517 146.637 59.1554 151.649 60.4591 156.661C55.2443 157.914 50.0295 159.584 45.2493 161.253C44.8147 161.67 43.9456 161.67 43.511 162.09C42.2073 162.506 40.469 163.343 39.1653 163.759C38.2962 163.759 36.9925 164.176 36.1233 164.596C23.0863 149.56 15.6987 130.768 14.3949 111.556H25.2591V99.4461H14.3949C15.6987 80.2347 23.0863 61.8595 35.6888 47.2432L36.1233 46.8264C36.9925 47.2432 38.2962 47.6626 39.1653 48.0794C40.9036 48.9129 42.2073 49.3323 43.9456 50.1685C44.3801 50.1685 44.8147 50.5853 45.2493 50.5853C50.0295 52.2551 55.2443 53.9274 60.8937 55.1804C59.59 59.7755 58.7209 64.368 57.8517 68.9631H70.8888L73.4962 57.6864C85.2295 59.7755 97.832 61.0259 110.434 61.0259C123.037 61.0259 135.205 59.7729 146.504 58.1032C147.373 61.4453 148.242 65.2016 149.111 69.3799H162.148C161.279 64.7874 160.41 60.1923 159.106 55.5972C164.755 54.3442 169.97 52.6745 175.185 50.5853C175.62 50.5853 176.489 50.1685 176.923 50.1685C178.662 49.7517 179.965 48.9155 181.704 48.4987C182.573 48.082 183.876 47.6626 184.746 47.2458C197.348 62.2815 205.17 80.6567 206.474 99.8655H193.437V111.976H206.474C204.301 130.768 196.913 149.56 184.311 164.176ZM82.6221 104.872C82.6221 109.884 81.753 114.06 80.4493 117.402C79.1456 120.744 76.9727 123.667 74.7999 126.173C72.1925 128.262 69.1505 129.932 65.674 131.185C62.1974 132.021 57.8517 132.854 52.6369 132.854H39.1653C38.2962 132.854 37.427 132.438 36.5579 132.018C35.6888 131.599 36.1233 130.349 36.1233 129.096V81.9019C36.1233 80.6489 36.5579 79.8127 36.9925 79.3959C37.427 78.9791 38.2962 78.5597 39.5999 78.5597H53.9406C59.1554 78.5597 63.0666 78.9765 66.5431 80.2295C70.0196 81.4825 73.0616 83.1522 75.2345 85.2414C77.4073 87.3306 79.5801 90.2533 80.8838 93.5928C81.753 96.9324 82.6221 100.694 82.6221 104.872ZM70.8888 105.289C70.8888 102.783 70.4542 100.277 70.0196 98.1905C69.5851 96.104 68.2814 94.0148 66.9777 92.3425C65.674 90.6701 63.9357 89.4197 61.7628 88.5835C59.59 87.7474 56.9826 87.3306 53.0715 87.3306H47.4221V124.081H53.5061C56.548 124.081 59.1554 123.664 61.3283 122.828C63.5011 121.992 65.2394 120.739 66.5431 119.486C67.8468 117.816 69.1505 116.146 69.5851 113.64C70.4542 111.134 70.8888 108.212 70.8888 105.289ZM138.247 128.676C138.247 129.512 138.247 129.929 137.812 130.346C137.378 130.763 137.378 131.182 136.943 131.599C136.509 132.016 136.074 132.016 135.639 132.432C135.205 132.432 134.77 132.849 133.901 132.849H129.121C128.252 132.849 127.383 132.849 126.513 132.432C125.644 132.432 125.21 132.016 124.341 131.179C123.906 130.763 123.037 129.927 122.602 129.09C122.168 128.254 121.299 127.001 120.864 125.748L106.958 100.691C106.089 99.0215 105.22 97.7685 104.35 95.6794C103.481 94.0096 102.612 92.3373 102.178 90.6675C102.178 92.7566 102.178 94.8432 102.612 96.513V102.778V131.177C102.612 131.594 102.612 131.594 102.178 132.013C102.178 132.43 101.743 132.43 101.309 132.43C100.874 132.43 100.439 132.847 99.5703 132.847H96.9629H94.3554C93.4863 132.847 93.0517 132.847 92.6172 132.43C92.1826 132.43 92.1826 132.013 91.748 132.013V131.177V82.7328C91.748 81.4799 92.1826 80.6437 93.0517 79.8101C93.9209 78.9765 94.79 78.9739 96.0937 78.9739H102.178C103.481 78.9739 104.351 78.9739 104.785 79.3907C105.654 79.3907 106.089 79.8075 106.958 80.2269C107.392 80.6437 108.262 81.0631 108.696 81.8967C109.203 82.9088 109.784 83.8855 110.434 84.8194L121.299 104.448C121.733 105.701 122.602 106.954 123.037 107.787C123.471 109.04 124.341 110.293 124.775 111.129C125.21 112.382 126.079 113.218 126.513 114.471C126.948 115.724 127.383 116.561 128.252 117.814V111.549V105.701V80.2321C128.252 79.8153 128.252 79.8153 128.686 79.3959C128.686 78.9791 129.121 78.9791 129.555 78.9791C129.99 78.9791 130.425 78.5623 131.294 78.5623H133.901H136.509C137.378 78.5623 137.812 78.5623 138.247 78.9791C138.681 78.9791 138.681 79.3959 139.116 79.3959V80.2321V128.676H138.247Z" fill="#00C6FF"/>
<path fill-rule="evenodd" clip-rule="evenodd" d="M183.877 116.566C183.877 119.489 183.442 121.994 182.138 124.084C180.835 126.173 179.531 127.843 177.793 129.512C176.054 130.765 173.881 132.018 171.274 132.852C168.667 133.685 166.059 134.105 163.017 134.105C161.279 134.105 159.106 134.105 157.802 133.688L153.457 132.435C152.153 132.018 151.284 131.601 150.415 131.182C149.546 130.763 149.111 130.346 148.677 129.929C148.242 129.512 148.242 129.093 147.807 128.259C147.807 127.426 147.373 126.59 147.373 125.337V123.247C147.373 122.831 147.373 121.994 147.807 121.994C147.807 121.578 148.242 121.578 148.242 121.158C148.242 121.158 148.677 120.742 149.111 120.742C149.546 120.742 149.98 121.158 150.849 121.578C151.718 121.997 152.588 122.414 153.891 123.247C155.195 123.664 156.499 124.5 158.237 124.917C159.975 125.334 161.714 125.753 163.886 125.753C165.19 125.753 166.494 125.753 167.797 125.337C169.101 124.92 169.97 124.5 170.405 124.084C171.274 123.667 171.709 122.831 172.143 121.994C172.578 121.158 172.578 120.325 172.578 119.072C172.578 117.819 172.143 116.983 171.709 115.73L169.101 113.224C167.797 112.387 166.928 111.971 165.19 111.134C163.886 110.718 162.148 109.882 160.844 109.045C159.541 108.209 157.802 107.792 156.499 106.956C155.195 106.12 153.891 105.286 152.588 104.033C151.284 102.78 150.415 101.527 149.98 99.8577C149.111 98.1879 149.111 96.5156 149.111 94.0096C149.111 91.5037 149.546 88.9977 150.415 87.328C151.284 85.2388 152.588 83.569 154.326 82.3161C156.064 81.0631 157.802 80.2269 160.41 79.3933C162.583 78.5571 165.19 78.5571 167.797 78.5571C169.101 78.5571 170.405 78.5571 171.709 78.9739C173.012 78.9739 174.316 79.3907 175.62 79.8101C176.923 80.2295 177.793 80.6463 178.662 81.0631C179.531 81.4799 179.965 81.8967 180.4 81.8967C180.835 82.3134 180.835 82.3135 180.835 82.7328C180.835 82.7328 180.835 83.1496 181.269 83.569V84.822V86.4918V88.5809V89.8339C181.269 90.2507 180.835 90.2507 180.835 90.6701C180.835 90.6701 180.4 91.0869 179.965 91.0869C179.531 91.0869 179.096 91.0869 178.662 90.6701L176.054 89.4171C175.185 89.0003 173.881 88.5809 172.578 88.1641C171.274 87.7474 169.97 87.7474 168.232 87.7474C166.928 87.7474 166.059 87.7474 165.19 88.1641C164.321 88.5809 163.452 89.0003 163.017 89.4171C162.583 89.8339 162.148 90.6701 161.714 91.0869C161.279 91.9231 161.279 92.7567 161.279 93.176C161.279 94.429 161.714 95.2652 162.148 96.0988L164.756 98.6047C166.059 99.4409 167.363 99.8577 168.667 100.694C169.97 101.111 171.709 101.947 173.012 102.783C174.316 103.619 176.054 104.036 177.358 104.872C178.662 105.708 179.965 106.542 181.269 107.795C182.573 109.048 183.442 110.301 183.877 111.971C183.442 112.387 183.877 114.06 183.877 116.566Z" fill="#00C6FF"/>
</svg>
