<svg width="630" height="630" viewBox="0 0 630 630" fill="none" xmlns="http://www.w3.org/2000/svg">
<g clip-path="url(#clip0_224_7)">
<path d="M630 0V630H0V0H630ZM479.501 285.891C426.631 285.891 392.801 319.691 392.801 364.091C392.801 412.291 421.181 435.091 463.9 453.291L478.701 459.641C505.701 471.451 521.801 478.641 521.801 498.94C521.801 515.88 506.131 528.141 481.601 528.141C452.401 528.141 435.891 512.91 423.201 492.19L375.091 520.141C392.471 554.481 427.991 580.681 482.971 580.681C539.201 580.681 581.071 551.481 581.071 498.181C581.071 448.741 552.671 426.751 502.371 405.181L487.571 398.841C462.171 387.841 451.171 380.651 451.171 362.891C451.171 348.521 462.161 337.521 479.501 337.521C496.501 337.521 507.451 344.691 517.601 362.891L563.701 333.291C544.201 298.991 517.141 285.891 479.501 285.891ZM283.891 289.271V490.57C283.891 520.16 271.621 527.77 252.171 527.771C231.831 527.771 223.371 513.82 214.071 497.32L165.881 526.496C179.841 556.041 207.291 580.57 254.69 580.57C307.15 580.57 343.091 552.671 343.091 491.371V289.271H283.891Z" fill="#00C6FF"/>
</g>
<defs>
<clipPath id="clip0_224_7">
<rect width="630" height="630" fill="white"/>
</clipPath>
</defs>
</svg>
