<svg width="800" height="800" viewBox="0 0 800 800" fill="none" xmlns="http://www.w3.org/2000/svg">
<path d="M186.219 257.368H25.6181C18.4903 257.368 12.7148 263.146 12.7148 270.271V786.214C12.7148 793.342 18.4903 799.118 25.6181 799.118H186.219C193.347 799.118 199.123 793.342 199.123 786.214V270.271C199.123 263.146 193.347 257.368 186.219 257.368Z" fill="#00C6FF"/>
<path d="M105.977 0.880127C47.5407 0.880127 0 48.3692 0 106.741C0 165.138 47.5407 212.645 105.977 212.645C164.366 212.645 211.868 165.136 211.868 106.741C211.871 48.3692 164.366 0.880127 105.977 0.880127Z" fill="#00C6FF"/>
<path d="M594.72 244.545C530.217 244.545 482.534 272.274 453.613 303.781V270.271C453.613 263.146 447.837 257.368 440.71 257.368H286.906C279.778 257.368 274.002 263.146 274.002 270.271V786.214C274.002 793.342 279.778 799.118 286.906 799.118H447.156C454.284 799.118 460.059 793.342 460.059 786.214V530.942C460.059 444.921 483.424 411.409 543.388 411.409C608.694 411.409 613.884 465.133 613.884 535.368V786.217C613.884 793.345 619.659 799.12 626.787 799.12H787.097C794.224 799.12 800 793.345 800 786.217V503.213C800 375.303 775.61 244.545 594.72 244.545Z" fill="#00C6FF"/>
</svg>
