<svg width="1000" height="1000" viewBox="0 0 1000 1000" fill="none" xmlns="http://www.w3.org/2000/svg">
<g clip-path="url(#clip0_112_8)">
<path d="M1000 484.996C1000 763.678 781.664 969.991 500 969.991C449.416 969.991 400.879 963.323 355.259 950.781C346.393 948.33 336.97 949.025 328.559 952.726L229.311 996.539C203.357 1008.01 174.055 989.542 173.184 961.175L170.456 872.222C170.115 861.271 165.189 851.015 157.018 843.728C59.7276 756.72 0 630.772 0 484.996C0 206.325 218.336 0 500 0C781.664 0 1000 206.325 1000 484.996Z" fill="#00C6FF"/>
<path d="M635.761 624.609L809.841 355.576C827.347 328.535 794.925 297.06 768.414 315.348L586.693 440.689C580.567 444.92 572.496 445.034 566.257 440.992L404.971 336.643C391.318 327.814 373.092 331.717 364.265 345.369L190.171 614.416C172.666 641.457 205.088 672.931 231.597 654.642L413.357 529.29C419.483 525.058 427.554 524.945 433.805 528.986L595.066 633.336C608.72 642.165 626.945 638.262 635.774 624.609H635.761Z" fill="white"/>
</g>
<defs>
<clipPath id="clip0_112_8">
<rect width="1000" height="999.991" fill="white"/>
</clipPath>
</defs>
</svg>
