<svg width="1000" height="1000" viewBox="0 0 1000 1000" fill="none" xmlns="http://www.w3.org/2000/svg">
<g clip-path="url(#clip0_112_8)">
<path d="M500 0C781.664 0 1000 206.325 1000 484.995C1000 763.678 781.664 969.991 500 969.991C449.416 969.991 400.879 963.323 355.259 950.781C346.393 948.33 336.97 949.025 328.559 952.727L229.312 996.539C203.357 1008.01 174.055 989.542 173.185 961.175L170.456 872.222C170.116 861.271 165.189 851.015 157.018 843.729C59.7275 756.72 0 630.771 0 484.995C0.000207232 206.325 218.336 0 500 0ZM809.841 355.575C827.346 328.534 794.925 297.06 768.414 315.348L586.692 440.688C580.567 444.92 572.496 445.034 566.258 440.992L404.971 336.643C391.318 327.814 373.092 331.717 364.265 345.369L190.172 614.416C172.666 641.457 205.088 672.931 231.598 654.643L413.357 529.29C419.483 525.059 427.554 524.945 433.805 528.986L595.065 633.336C608.72 642.165 626.945 638.262 635.773 624.609H635.761L809.841 355.575Z" fill="#00C6FF"/>
</g>
<defs>
<clipPath id="clip0_112_8">
<rect width="1000" height="999.991" fill="white"/>
</clipPath>
</defs>
</svg>
