<svg width="1024" height="519" viewBox="0 0 1024 519" fill="none" xmlns="http://www.w3.org/2000/svg">
<path d="M512 518.827C229.12 518.827 0 402.773 0 259.413C0 116.053 229.12 0 512 0C794.88 0 1024 116.053 1024 259.413C1024 402.773 794.88 518.827 512 518.827ZM290.56 179.627C313.6 179.627 329.387 183.893 337.067 192.853C344.747 201.387 346.453 216.747 342.613 236.8C338.347 259.413 330.24 273.92 317.867 283.307C305.92 292.693 287.573 297.387 262.827 297.387H225.707L248.32 179.627H290.56ZM141.227 416.427H202.667L217.173 341.76H269.653C292.693 341.76 311.467 339.2 326.4 334.507C341.333 329.387 354.987 321.28 367.36 309.76C377.6 300.373 385.707 290.133 392.107 278.613C398.507 267.52 403.2 254.72 405.333 241.067C412.16 207.787 407.467 181.76 391.253 163.413C374.613 144.64 349.013 135.68 313.6 135.68H195.84L141.227 416.427ZM450.56 61.0133L395.947 341.76H456.533L488.107 180.907H536.747C552.107 180.907 562.347 183.467 567.04 188.587C571.733 193.707 572.587 203.093 570.027 216.747L545.707 341.76H607.573L632.747 210.773C638.293 184.32 634.027 165.12 621.227 152.747C608.427 141.227 584.96 135.68 550.827 135.68H496.64L512 61.0133H450.56ZM768 179.627C791.467 179.627 806.827 183.893 814.507 192.853C822.187 201.387 823.893 216.747 820.053 236.8C815.787 259.413 807.68 273.92 795.733 283.307C783.36 292.693 765.013 297.387 740.267 297.387H704L725.333 179.627H768ZM618.667 416.427H680.107L694.613 341.76H746.667C770.133 341.76 789.333 339.2 804.267 334.507C819.2 329.387 832 321.28 844.8 309.76C855.04 300.373 863.573 290.133 869.547 278.613C875.947 267.52 880.64 254.72 883.2 241.067C889.6 207.787 884.907 181.76 868.693 163.413C853.333 144.64 826.453 135.68 791.04 135.68H673.707L618.667 416.427Z" fill="#00C6FF"/>
</svg>
