<svg width="201" height="288" viewBox="0 0 201 288" fill="none" xmlns="http://www.w3.org/2000/svg">
<path d="M100 0.000488768C92.596 -0.273511 93.107 114.745 100 115L200 57.0005L100 0.000488768Z" fill="#00C6FF"/>
<path d="M0 172.474V287.474L100 229.474L0 172.474Z" fill="#00C6FF"/>
<path d="M100 115.001C106.355 115.772 107.465 1.03477 100 0.000770569L8.39233e-05 58.0008L100 115.001Z" fill="#00C6FF"/>
<path d="M200 172.001V57.0008C195.763 46.9368 95.763 104.937 100 115.001C99.637 133.078 193.84 178.872 200 172.001Z" fill="#00C6FF"/>
<path d="M100 115V230L200 172C203.364 169.57 106.006 110.662 100 115Z" fill="#00C6FF"/>
</svg>
