<svg width="600" height="600" viewBox="0 0 600 600" fill="none" xmlns="http://www.w3.org/2000/svg">
<path fill-rule="evenodd" clip-rule="evenodd" d="M600 300C600 465.687 465.687 600 300 600C134.315 600 0 465.687 0 300C0 134.315 134.315 0 300 0C465.687 0 600 134.315 600 300ZM189.751 191.403L444.347 260.177L455.56 211.449L200.964 142.677L189.751 191.403ZM373.98 89.745L360.423 148.88L312.163 135.796L325.723 76.6613L373.98 89.745ZM274.24 523.333L287.84 464.21L239.573 451.167L225.971 510.29L274.24 523.333ZM421.607 358.87L167.041 289.983L178.236 241.253L432.8 310.14L421.607 358.87ZM144.398 388.53L398.987 457.323L410.197 408.597L155.608 339.803L144.398 388.53Z" fill="#00C6FF"/>
</svg>
