<svg width="1664" height="1580" viewBox="0 0 1664 1580" fill="none" xmlns="http://www.w3.org/2000/svg">
<g clip-path="url(#clip0_114_17)">
<path d="M832 0C372.484 0 0 353.681 0 790C0 1226.32 372.484 1580 832 1580C1291.52 1580 1664 1226.32 1664 790C1664 353.735 1291.52 0.0539065 832 0ZM1213.57 1139.37C1198.64 1162.66 1166.67 1169.93 1142.26 1155.76C946.907 1042.39 700.969 1016.78 411.373 1079.59C383.441 1085.68 355.623 1069.07 349.264 1042.55C342.849 1016.03 360.278 989.616 388.267 983.578C705.17 914.848 977.054 944.442 1196.37 1071.66C1220.78 1085.95 1228.56 1116.19 1213.57 1139.37ZM1315.36 924.335C1296.57 953.337 1256.6 962.393 1226.11 944.604C1002.54 814.096 661.569 776.308 397.066 852.532C362.776 862.396 326.555 844.014 316.109 811.509C305.776 778.949 325.136 744.611 359.37 734.692C661.512 647.633 1037.18 689.788 1293.96 839.648C1324.5 857.491 1334.15 895.387 1315.36 924.335ZM1324.1 700.3C1055.91 549.092 613.54 535.184 357.496 608.928C316.393 620.787 272.905 598.74 260.472 559.711C248.039 520.683 271.202 479.391 312.362 467.531C606.273 382.844 1094.8 399.178 1403.53 573.188C1440.49 594.05 1452.64 639.385 1430.72 674.424C1408.86 709.571 1361.01 721.161 1324.1 700.3Z" fill="#00C6FF"/>
</g>
<defs>
<clipPath id="clip0_114_17">
<rect width="1664" height="1580" fill="white"/>
</clipPath>
</defs>
</svg>
