<svg width="1024" height="1024" viewBox="0 0 1024 1024" fill="none" xmlns="http://www.w3.org/2000/svg">
<path d="M511.104 0C242.261 0 21.8027 207.36 0.938721 470.912L275.371 584.32C299.408 567.905 327.842 559.131 356.949 559.147C359.637 559.147 362.283 559.317 364.971 559.403L487.04 382.677V380.16C487.085 328.981 507.436 279.911 543.625 243.721C579.815 207.532 628.885 187.181 680.064 187.136C786.475 187.136 873.088 273.792 873.088 380.288C873.088 486.784 786.475 573.355 680.064 573.355H675.584L501.675 697.557C501.675 699.776 501.845 702.037 501.845 704.341C501.868 723.354 498.144 742.185 490.886 759.758C483.628 777.331 472.979 793.302 459.547 806.758C446.115 820.214 430.163 830.891 412.603 838.18C395.042 845.469 376.218 849.226 357.205 849.237C323.754 849.124 291.362 837.494 265.479 816.304C239.595 795.114 221.798 765.656 215.083 732.885L18.6027 651.52C79.4454 866.432 276.736 1024 511.104 1024C793.856 1024 1023.06 794.752 1023.06 512C1023.06 229.248 793.813 0 511.104 0ZM321.707 776.96L258.859 750.933C270.037 774.101 289.323 793.557 314.923 804.267C334.779 812.494 356.626 814.659 377.711 810.487C398.795 806.316 418.172 795.996 433.4 780.828C448.628 765.659 459.023 746.322 463.277 725.254C467.53 704.186 465.451 682.331 457.301 662.443C446.539 636.305 426.016 615.39 400.088 604.134C374.159 592.878 344.865 592.168 318.421 602.155L383.403 629.035C403.019 637.21 418.584 652.844 426.673 672.496C434.763 692.147 434.714 714.208 426.539 733.824C418.363 753.44 402.73 769.005 383.078 777.095C363.426 785.184 341.366 785.136 321.749 776.96H321.707ZM808.747 380.032C808.702 345.928 795.134 313.235 771.019 289.12C746.904 265.005 714.21 251.437 680.107 251.392C654.664 251.392 629.793 258.937 608.638 273.072C587.483 287.207 570.995 307.298 561.259 330.804C551.522 354.309 548.975 380.175 553.939 405.128C558.902 430.082 571.154 453.004 589.145 470.994C607.135 488.985 630.057 501.237 655.01 506.2C679.964 511.164 705.829 508.616 729.335 498.88C752.841 489.143 772.932 472.655 787.067 451.501C801.202 430.346 808.747 405.475 808.747 380.032ZM583.765 379.819C583.765 354.182 593.949 329.596 612.077 311.469C630.204 293.341 654.791 283.157 680.427 283.157C706.063 283.157 730.649 293.341 748.777 311.469C766.904 329.596 777.088 354.182 777.088 379.819C777.065 405.45 766.871 430.024 748.743 448.144C730.615 466.263 706.036 476.447 680.405 476.459C667.713 476.464 655.144 473.968 643.416 469.114C631.689 464.259 621.033 457.141 612.058 448.166C603.083 439.191 595.965 428.535 591.11 416.808C586.256 405.08 583.76 392.511 583.765 379.819Z" fill="#00C6FF"/>
</svg>
