<svg width="644" height="644" viewBox="0 0 644 644" fill="none" xmlns="http://www.w3.org/2000/svg">
<path d="M137.838 2.13336C73.705 13.6 22.105 61.0667 5.83836 123.467C-0.0283076 146 -0.428308 159.2 0.238359 334C0.638359 494.533 0.771692 498.267 3.43836 510.667C18.2384 577.467 65.705 625.067 133.172 640.8C141.972 642.8 153.172 643.2 225.305 643.6C299.972 644.133 307.705 644 309.705 642C311.705 640 311.838 614.267 311.838 322.533C311.838 106.267 311.438 4.40003 310.505 2.53336C309.172 0.133365 306.905 3.15238e-05 228.772 0.133365C165.305 0.266698 146.238 0.666698 137.838 2.13336ZM258.505 322.133V592.267L204.238 591.6C154.238 591.067 148.905 590.8 138.905 588.267C95.9717 577.2 64.105 544.133 55.1717 501.067C52.2384 487.6 52.2384 155.867 55.0384 142.667C63.0384 105.2 89.0384 74.1334 124.105 60.1334C141.705 53.0667 149.838 52.2667 206.905 52.1334L258.505 52V322.133Z" fill="#00C6FF"/>
<path d="M149.305 133.467C140.905 135.067 128.105 141.467 121.305 147.467C107.305 159.6 100.372 176.8 101.438 197.067C101.972 207.6 102.638 210.4 106.905 218.934C113.172 231.867 122.638 241.334 135.572 247.734C144.505 252.134 146.772 252.667 158.372 253.067C168.905 253.467 172.638 253.067 179.705 250.667C208.638 240.934 226.105 212.8 221.172 184C215.438 149.734 182.905 126.8 149.305 133.467Z" fill="#00C6FF"/>
<path d="M376.772 0.933625C376.238 1.33363 375.838 145.867 375.838 322.134C375.838 612.934 375.972 642.4 377.972 643.2C381.572 644.534 485.038 644 497.838 642.667C551.972 636.534 599.705 603.6 625.705 554.667C629.038 548.4 633.438 537.867 635.705 531.334C644.105 506.267 643.838 512.934 643.838 321.334C643.838 168.4 643.572 145.6 641.705 135.867C628.505 66.4003 575.572 14.0003 505.972 2.00029C496.638 0.400292 482.238 0.000291935 435.838 0.000291935C403.838 0.000291935 377.172 0.400292 376.772 0.933625ZM519.172 291.334C539.972 296.8 557.038 312.667 563.972 332.934C568.372 345.467 568.238 363.867 563.838 375.334C555.705 396.4 539.705 411.2 519.172 416.667C485.838 425.334 450.372 405.2 440.638 372.134C437.705 362 437.838 344.934 441.172 334.534C451.172 301.867 485.838 282.667 519.172 291.334Z" fill="#00C6FF"/>
</svg>
