<svg width="256" height="256" viewBox="0 0 256 256" fill="none" xmlns="http://www.w3.org/2000/svg">
<path d="M110.404 145.308L140.966 175.87C143.703 178.607 147.909 179.225 151.318 177.396L187.943 157.734C190.652 156.279 193.926 156.349 196.57 157.92L250.008 189.631C253.821 191.893 255.355 196.625 253.571 200.682C249.005 211.074 240.693 230.12 237.391 238.541C236.697 240.315 235.663 241.939 234.224 243.184C198.61 274.054 127.753 236.44 73.5172 182.204C19.273 127.965 -18.3417 57.1082 12.529 21.4943C13.7766 20.0555 15.4008 19.0215 17.1711 18.3274C25.5898 15.0256 44.6388 6.71365 55.0302 2.1474C59.0879 0.363054 63.8199 1.89731 66.0819 5.71048L97.7928 59.1483C99.3608 61.7925 99.431 65.0661 97.9783 67.775L78.3167 104.395C76.4874 107.803 77.1056 112.01 79.8425 114.747L110.404 145.308Z" fill="#00C6FF"/>
</svg>
