<svg width="417" height="481" viewBox="0 0 417 481" fill="none" xmlns="http://www.w3.org/2000/svg">
<path d="M364.231 102.66C360.991 100.986 357.837 99.1499 354.781 97.16C345.894 91.2846 337.745 84.3615 330.511 76.54C312.411 55.83 305.651 34.82 303.161 20.11H303.261C301.181 7.9 302.041 0 302.171 0H219.731V318.78C219.731 323.06 219.731 327.29 219.551 331.47C219.551 331.99 219.501 332.47 219.471 333.03C219.471 333.26 219.471 333.5 219.421 333.74C219.421 333.8 219.421 333.86 219.421 333.92C218.552 345.358 214.886 356.407 208.744 366.095C202.603 375.783 194.175 383.814 184.201 389.48C173.807 395.394 162.05 398.496 150.091 398.48C111.681 398.48 80.5511 367.16 80.5511 328.48C80.5511 289.8 111.681 258.48 150.091 258.48C157.362 258.473 164.588 259.617 171.501 261.87L171.601 177.93C150.615 175.219 129.294 176.887 108.985 182.828C88.6753 188.77 69.8175 198.856 53.6011 212.45C39.3918 224.796 27.4459 239.527 18.3011 255.98C14.8211 261.98 1.69112 286.09 0.101119 325.22C-0.898881 347.43 5.77112 370.44 8.95112 379.95V380.15C10.9511 385.75 18.7011 404.86 31.3311 420.97C41.5155 433.893 53.548 445.245 67.0411 454.66V454.46L67.2411 454.66C107.151 481.78 151.401 480 151.401 480C159.061 479.69 184.721 480 213.861 466.19C246.181 450.88 264.581 428.07 264.581 428.07C276.336 414.441 285.683 398.909 292.221 382.14C299.681 362.53 302.171 339.01 302.171 329.61V160.49C303.171 161.09 316.491 169.9 316.491 169.9C316.491 169.9 335.681 182.2 365.621 190.21C387.101 195.91 416.041 197.11 416.041 197.11V115.27C405.901 116.37 385.311 113.17 364.231 102.66Z" fill="#00C6FF"/>
</svg>
