<svg width="3996" height="512" viewBox="0 0 3996 512" fill="none" xmlns="http://www.w3.org/2000/svg">
<g clip-path="url(#clip0_1_3)">
<path d="M2086.62 38.61H2133.66L2040.07 389.45H1994.01L1918.55 158.17H1916.59L1841.13 389.45H1795.07L1697.56 38.61H1744.6L1818.59 314.48H1820.55L1896.5 85.65H1938.64L2014.59 314.48H2016.55L2086.62 38.61Z" fill="#00C6FF"/>
<mask id="mask0_1_3" style="mask-type:luminance" maskUnits="userSpaceOnUse" x="0" y="0" width="3996" height="512">
<path d="M3996 0H0V512H3996V0Z" fill="white"/>
</mask>
<g mask="url(#mask0_1_3)">
<path d="M2129.4 269.4C2129.4 232.493 2141 201.95 2164.19 177.77C2187.71 153.597 2217.27 141.51 2252.88 141.51C2288.49 141.51 2317.89 153.597 2341.08 177.77C2364.6 201.95 2376.36 232.493 2376.36 269.4C2376.36 306.64 2364.6 337.183 2341.08 361.03C2317.88 385.21 2288.48 397.297 2252.88 397.29C2217.28 397.283 2187.72 385.187 2164.19 361C2140.99 336.833 2129.39 306.29 2129.4 269.37M2174.48 269.37C2174.48 295.183 2181.99 316.09 2197.02 332.09C2212.05 348.09 2230.67 356.09 2252.88 356.09C2275.09 356.09 2293.71 348.09 2308.74 332.09C2323.77 316.09 2331.28 295.183 2331.28 269.37C2331.28 243.89 2323.77 223.147 2308.74 207.14C2293.41 190.813 2274.79 182.647 2252.88 182.64C2230.97 182.633 2212.35 190.81 2197 207.17C2181.97 223.17 2174.45 243.913 2174.46 269.4" fill="#00C6FF"/>
<path d="M2453.43 389.45H2408.35V149.35H2451.47V188.55H2453.47C2458.04 175.81 2467.44 164.947 2481.65 155.96C2495.86 146.973 2509.83 142.483 2523.54 142.49C2536.6 142.49 2547.71 144.45 2556.86 148.37L2543.1 192C2537.54 189.72 2528.72 188.577 2516.64 188.57C2499.65 188.57 2484.87 195.43 2472.3 209.15C2459.73 222.87 2453.44 238.87 2453.43 257.15V389.45Z" fill="#00C6FF"/>
<path d="M2788.88 389.45H2734.49L2659.52 276.26L2622.77 312.52V389.45H2577.69V38.61H2622.77V254.7L2726.65 149.35H2784.47V151.31L2690.88 244.41L2788.88 387.49V389.45Z" fill="#00C6FF"/>
<path d="M2983.94 322.81C2983.94 343.723 2974.79 361.363 2956.5 375.73C2938.21 390.097 2915.18 397.283 2887.41 397.29C2863.24 397.29 2842 391 2823.71 378.42C2805.79 366.321 2792.09 348.938 2784.51 328.69L2824.69 311.54C2830.57 325.92 2839.15 337.107 2850.42 345.1C2861.16 352.934 2874.12 357.138 2887.42 357.1C2901.8 357.1 2913.8 353.997 2923.42 347.79C2933.04 341.583 2937.86 334.233 2937.87 325.74C2937.87 310.407 2926.11 299.137 2902.59 291.93L2861.43 281.64C2814.73 269.88 2791.38 247.333 2791.37 214C2791.37 192.12 2800.27 174.56 2818.08 161.32C2835.89 148.08 2858.67 141.467 2886.43 141.48C2907.67 141.48 2926.86 146.543 2944.01 156.67C2961.16 166.797 2973.16 180.353 2980.01 197.34L2939.84 214C2935.23 203.836 2927.4 195.48 2917.55 190.23C2906.96 184.444 2895.06 181.492 2883 181.66C2871.84 181.493 2860.86 184.556 2851.4 190.48C2842.07 196.36 2837.4 203.547 2837.4 212.04C2837.4 225.76 2850.3 235.56 2876.11 241.44L2912.37 250.75C2960.06 262.51 2983.91 286.51 2983.91 322.75" fill="#00C6FF"/>
<path d="M3140.49 397.29C3122.85 397.29 3106.76 393.533 3092.23 386.02C3077.7 378.507 3066.51 368.543 3058.66 356.13H3056.66L3058.66 389.45V495.29H3013.58V149.35H3056.7V182.67H3058.7C3066.54 170.263 3077.73 160.3 3092.27 152.78C3106.81 145.26 3122.9 141.503 3140.53 141.51C3172.21 141.51 3199 153.923 3220.89 178.75C3243.43 203.91 3254.7 234.127 3254.7 269.4C3254.7 305.013 3243.43 335.23 3220.89 360.05C3199 384.877 3172.22 397.29 3140.53 397.29M3133.18 356.13C3154.74 356.13 3172.87 347.963 3187.57 331.63C3202.24 315.63 3209.57 294.887 3209.57 269.4C3209.57 244.253 3202.24 223.51 3187.57 207.17C3172.9 190.83 3154.77 182.663 3133.18 182.67C3111.29 182.67 3093 190.837 3078.3 207.17C3063.92 223.51 3056.73 244.253 3056.74 269.4C3056.74 294.88 3063.93 315.787 3078.3 332.12C3092.97 348.12 3111.26 356.12 3133.18 356.12" fill="#00C6FF"/>
<path d="M3378.14 141.51C3411.47 141.51 3437.77 150.41 3457.03 168.21C3476.29 186.01 3485.93 210.43 3485.94 241.47V389.47H3442.82V356.13H3440.82C3422.2 383.57 3397.37 397.29 3366.34 397.29C3339.88 397.29 3317.75 389.45 3299.94 373.77C3282.13 358.09 3273.23 338.49 3273.24 314.97C3273.24 290.15 3282.63 270.387 3301.41 255.68C3320.19 240.973 3345.26 233.623 3376.63 233.63C3403.41 233.63 3425.46 238.53 3442.78 248.33V238C3442.78 222.32 3436.57 209.007 3424.16 198.06C3412.21 187.294 3396.63 181.434 3380.55 181.65C3355.39 181.65 3335.46 192.267 3320.77 213.5L3281.08 188.5C3302.96 157.167 3335.29 141.5 3378.08 141.5M3319.83 316C3319.83 327.76 3324.81 337.56 3334.77 345.4C3344.73 353.24 3356.4 357.16 3369.77 357.16C3388.71 357.16 3405.61 350.137 3420.48 336.09C3435.35 322.043 3442.78 305.547 3442.78 286.6C3428.73 275.5 3409.13 269.947 3383.98 269.94C3365.68 269.94 3350.41 274.35 3338.16 283.17C3325.91 291.99 3319.8 302.933 3319.83 316Z" fill="#00C6FF"/>
<path d="M3638.77 397.29C3603.16 397.29 3573.59 385.203 3550.08 361.03C3526.88 336.21 3515.28 305.667 3515.29 269.4C3515.29 232.493 3526.89 201.95 3550.08 177.77C3573.6 153.597 3603.16 141.51 3638.77 141.51C3663.27 141.51 3684.67 147.633 3702.96 159.88C3721.25 172.127 3734.97 189.033 3744.12 210.6L3703 227.75C3690.26 197.697 3667.88 182.67 3635.87 182.67C3615.29 182.67 3597.49 191.003 3582.46 207.67C3567.76 224.337 3560.41 244.917 3560.41 269.41C3560.41 293.903 3567.76 314.483 3582.46 331.15C3597.48 347.817 3615.28 356.15 3635.87 356.15C3668.86 356.15 3692.06 341.123 3705.45 311.07L3745.63 328.22C3736.81 349.78 3723.01 366.683 3704.22 378.93C3685.43 391.177 3663.63 397.303 3638.81 397.31" fill="#00C6FF"/>
<path d="M3881.36 397.29C3846.08 397.29 3817.01 385.203 3794.14 361.03C3771.27 336.857 3759.84 306.313 3759.84 269.4C3759.84 232.82 3770.95 202.357 3793.16 178.01C3815.37 153.663 3843.79 141.497 3878.42 141.51C3914.02 141.51 3942.35 153.023 3963.42 176.05C3984.49 199.077 3995.01 231.337 3995 272.83L3994.51 277.73H3805.9C3806.57 301.25 3814.41 320.197 3829.42 334.57C3844.43 348.943 3862.4 356.13 3883.32 356.13C3912.06 356.13 3934.6 341.757 3950.94 313.01L3991.12 332.61C3980.87 352.305 3965.35 368.761 3946.28 380.14C3927.17 391.567 3905.53 397.283 3881.36 397.29ZM3809.36 240.49H3947C3945.67 223.823 3938.89 210.02 3926.66 199.08C3914.43 188.14 3898.02 182.67 3877.42 182.67C3860.43 182.67 3845.81 187.897 3833.56 198.35C3821.31 208.803 3813.23 222.85 3809.31 240.49" fill="#00C6FF"/>
</g>
<mask id="mask1_1_3" style="mask-type:luminance" maskUnits="userSpaceOnUse" x="0" y="0" width="3996" height="512">
<path d="M3996 0H0V512H3996V0Z" fill="white"/>
</mask>
<g mask="url(#mask1_1_3)">
<path d="M202.4 235.58V181.32H384C386.016 192.294 386.997 203.433 386.93 214.59C386.93 255.27 375.8 305.65 339.93 341.49C305.06 377.82 260.51 397.2 201.43 397.2C92 397.2 0 308.07 0 198.6C0 89.13 92 0 201.45 0C262 0 305.08 23.74 337.53 54.74L299.27 93C276 71.21 244.55 54.25 201.45 54.25C121.55 54.25 59.08 118.67 59.08 198.6C59.08 278.53 121.55 343 201.45 343C253.27 343 282.81 322.17 301.69 303.28C317.08 287.89 327.22 265.81 331.15 235.63L202.4 235.58Z" fill="#00C6FF"/>
<path d="M663.64 269.32C663.64 343 606 397.2 535.32 397.2C464.64 397.2 407 343 407 269.32C407 195.21 464.63 141.44 535.34 141.44C606.05 141.44 663.66 195.21 663.66 269.32M607.49 269.32C607.49 223.32 574.08 191.82 535.34 191.82C496.6 191.82 463.18 223.3 463.18 269.32C463.18 314.85 496.59 346.82 535.34 346.82C574.09 346.82 607.49 314.82 607.49 269.32Z" fill="#00C6FF"/>
<path d="M943.59 269.32C943.59 343 886 397.2 815.27 397.2C744.54 397.2 686.94 343 686.94 269.32C686.94 195.21 744.56 141.44 815.27 141.44C885.98 141.44 943.59 195.21 943.59 269.32ZM887.42 269.32C887.42 223.32 854.01 191.82 815.27 191.82C776.53 191.82 743.11 223.3 743.11 269.32C743.11 314.85 776.52 346.82 815.27 346.82C854.02 346.82 887.42 314.82 887.42 269.32Z" fill="#00C6FF"/>
<path d="M1211.93 149.19V378.79C1211.93 473.25 1156.24 512 1090.38 512C1028.38 512 991.1 470.34 977.06 436.44L1026 416.09C1034.71 436.92 1056 461.62 1090.41 461.62C1132.54 461.62 1158.69 435.46 1158.69 386.54V368.14H1156.75C1144.16 383.64 1119.95 397.2 1089.44 397.2C1025.51 397.2 966.92 341.49 966.92 269.81C966.92 197.63 1025.51 141.44 1089.44 141.44C1119.95 141.44 1144.16 155 1156.75 170.02H1158.69V149.19H1211.93ZM1162.53 269.81C1162.53 224.76 1132.53 191.81 1094.25 191.81C1055.51 191.81 1023.06 224.75 1023.06 269.81C1023.06 314.37 1055.51 346.81 1094.25 346.81C1132.51 346.81 1162.53 314.36 1162.53 269.81Z" fill="#00C6FF"/>
<path d="M1307.07 14.82H1250.9V389.45H1307.07V14.82Z" fill="#00C6FF"/>
<path d="M1524 311.46L1567.58 340.52C1553.58 361.35 1519.64 397.2 1461.04 397.2C1388.4 397.2 1334.16 341.01 1334.16 269.32C1334.16 193.32 1388.89 141.44 1454.74 141.44C1521.09 141.44 1553.53 194.24 1564.19 222.82L1570 237.35L1399 308.07C1412.08 333.74 1432.42 346.82 1461 346.82C1489.58 346.82 1509.43 332.82 1524 311.46ZM1389.85 265.46L1504.14 218C1497.84 202 1478.96 190.88 1456.68 190.88C1428.11 190.88 1388.4 216.07 1389.85 265.48" fill="#00C6FF"/>
</g>
</g>
<defs>
<clipPath id="clip0_1_3">
<rect width="3995.04" height="512" fill="white"/>
</clipPath>
</defs>
</svg>
