<svg width="2298" height="1008" viewBox="0 0 2298 1008" fill="none" xmlns="http://www.w3.org/2000/svg">
<path d="M502.84 235.58V181.32H684.44C686.456 192.294 687.437 203.433 687.37 214.59C687.37 255.27 676.24 305.65 640.37 341.49C605.5 377.82 560.95 397.2 501.87 397.2C392.44 397.2 300.44 308.07 300.44 198.6C300.44 89.13 392.44 0 501.89 0C562.44 0 605.52 23.74 637.97 54.74L599.71 93C576.44 71.21 544.99 54.25 501.89 54.25C421.99 54.25 359.52 118.67 359.52 198.6C359.52 278.53 421.99 343 501.89 343C553.71 343 583.25 322.17 602.13 303.28C617.52 287.89 627.66 265.81 631.59 235.63L502.84 235.58Z" fill="#00C6FF"/>
<path d="M431.84 781.4C431.84 744.493 443.44 713.95 466.63 689.77C490.15 665.597 519.71 653.51 555.32 653.51C590.93 653.51 620.33 665.597 643.52 689.77C667.04 713.95 678.8 744.493 678.8 781.4C678.8 818.64 667.04 849.183 643.52 873.03C620.32 897.21 590.92 909.297 555.32 909.29C519.72 909.283 490.16 897.187 466.63 873C443.43 848.833 431.83 818.29 431.84 781.37M476.92 781.37C476.92 807.183 484.43 828.09 499.46 844.09C514.49 860.09 533.11 868.09 555.32 868.09C577.53 868.09 596.15 860.09 611.18 844.09C626.21 828.09 633.72 807.183 633.72 781.37C633.72 755.89 626.21 735.147 611.18 719.14C595.85 702.813 577.23 694.647 555.32 694.64C533.41 694.633 514.79 702.81 499.44 719.17C484.41 735.17 476.89 755.913 476.9 781.4" fill="#00C6FF"/>
<path d="M755.87 901.45H710.79V661.35H753.91V700.55H755.91C760.48 687.81 769.88 676.947 784.09 667.96C798.3 658.973 812.27 654.483 825.98 654.49C839.04 654.49 850.15 656.45 859.3 660.37L845.54 704C839.98 701.72 831.16 700.577 819.08 700.57C802.09 700.57 787.31 707.43 774.74 721.15C762.17 734.87 755.88 750.87 755.87 769.15V901.45Z" fill="#00C6FF"/>
<path d="M1091.32 901.45H1036.93L961.96 788.26L925.21 824.52V901.45H880.13V550.61H925.21V766.7L1029.09 661.35H1086.91V663.31L993.32 756.41L1091.32 899.49V901.45Z" fill="#00C6FF"/>
<path d="M1286.38 834.81C1286.38 855.723 1277.23 873.363 1258.94 887.73C1240.65 902.097 1217.62 909.283 1189.85 909.29C1165.68 909.29 1144.44 903 1126.15 890.42C1108.23 878.321 1094.53 860.938 1086.95 840.69L1127.13 823.54C1133.01 837.92 1141.59 849.107 1152.86 857.1C1163.6 864.934 1176.56 869.138 1189.86 869.1C1204.24 869.1 1216.24 865.997 1225.86 859.79C1235.48 853.583 1240.3 846.233 1240.31 837.74C1240.31 822.407 1228.55 811.137 1205.03 803.93L1163.87 793.64C1117.17 781.88 1093.82 759.333 1093.81 726C1093.81 704.12 1102.71 686.56 1120.52 673.32C1138.33 660.08 1161.11 653.467 1188.87 653.48C1210.11 653.48 1229.3 658.543 1246.45 668.67C1263.6 678.797 1275.6 692.353 1282.45 709.34L1242.28 726C1237.67 715.836 1229.84 707.48 1219.99 702.23C1209.4 696.444 1197.5 693.492 1185.44 693.66C1174.28 693.493 1163.3 696.556 1153.84 702.48C1144.51 708.36 1139.84 715.547 1139.84 724.04C1139.84 737.76 1152.74 747.56 1178.55 753.44L1214.81 762.75C1262.5 774.51 1286.35 798.51 1286.35 834.75" fill="#00C6FF"/>
<path d="M1442.93 909.29C1425.29 909.29 1409.2 905.533 1394.67 898.02C1380.14 890.507 1368.95 880.543 1361.1 868.13H1359.1L1361.1 901.45V1007.29H1316.02V661.35H1359.14V694.67H1361.14C1368.98 682.263 1380.17 672.3 1394.71 664.78C1409.25 657.26 1425.34 653.503 1442.97 653.51C1474.65 653.51 1501.44 665.923 1523.33 690.75C1545.87 715.91 1557.14 746.127 1557.14 781.4C1557.14 817.013 1545.87 847.23 1523.33 872.05C1501.44 896.877 1474.66 909.29 1442.97 909.29M1435.62 868.13C1457.18 868.13 1475.31 859.963 1490.01 843.63C1504.68 827.63 1512.01 806.887 1512.01 781.4C1512.01 756.253 1504.68 735.51 1490.01 719.17C1475.34 702.83 1457.21 694.663 1435.62 694.67C1413.73 694.67 1395.44 702.837 1380.74 719.17C1366.36 735.51 1359.17 756.253 1359.18 781.4C1359.18 806.88 1366.37 827.787 1380.74 844.12C1395.41 860.12 1413.7 868.12 1435.62 868.12" fill="#00C6FF"/>
<path d="M1680.58 653.51C1713.91 653.51 1740.21 662.41 1759.47 680.21C1778.73 698.01 1788.37 722.43 1788.38 753.47V901.47H1745.26V868.13H1743.26C1724.64 895.57 1699.81 909.29 1668.78 909.29C1642.32 909.29 1620.19 901.45 1602.38 885.77C1584.57 870.09 1575.67 850.49 1575.68 826.97C1575.68 802.15 1585.07 782.387 1603.85 767.68C1622.63 752.973 1647.7 745.623 1679.07 745.63C1705.85 745.63 1727.9 750.53 1745.22 760.33V750C1745.22 734.32 1739.01 721.007 1726.6 710.06C1714.65 699.294 1699.07 693.434 1682.99 693.65C1657.83 693.65 1637.9 704.267 1623.21 725.5L1583.52 700.5C1605.4 669.167 1637.73 653.5 1680.52 653.5M1622.27 828C1622.27 839.76 1627.25 849.56 1637.21 857.4C1647.17 865.24 1658.84 869.16 1672.21 869.16C1691.15 869.16 1708.05 862.137 1722.92 848.09C1737.79 834.043 1745.22 817.547 1745.22 798.6C1731.17 787.5 1711.57 781.947 1686.42 781.94C1668.12 781.94 1652.85 786.35 1640.6 795.17C1628.35 803.99 1622.24 814.933 1622.27 828Z" fill="#00C6FF"/>
<path d="M1941.21 909.29C1905.6 909.29 1876.03 897.203 1852.52 873.03C1829.32 848.21 1817.72 817.667 1817.73 781.4C1817.73 744.493 1829.33 713.95 1852.52 689.77C1876.04 665.597 1905.6 653.51 1941.21 653.51C1965.71 653.51 1987.11 659.633 2005.4 671.88C2023.69 684.127 2037.41 701.033 2046.56 722.6L2005.44 739.75C1992.7 709.697 1970.32 694.67 1938.31 694.67C1917.73 694.67 1899.93 703.003 1884.9 719.67C1870.2 736.337 1862.85 756.917 1862.85 781.41C1862.85 805.903 1870.2 826.483 1884.9 843.15C1899.92 859.817 1917.72 868.15 1938.31 868.15C1971.3 868.15 1994.5 853.123 2007.89 823.07L2048.07 840.22C2039.25 861.78 2025.45 878.683 2006.66 890.93C1987.87 903.177 1966.07 909.303 1941.25 909.31" fill="#00C6FF"/>
<path d="M2183.8 909.29C2148.52 909.29 2119.45 897.203 2096.58 873.03C2073.71 848.857 2062.28 818.313 2062.28 781.4C2062.28 744.82 2073.39 714.357 2095.6 690.01C2117.81 665.663 2146.23 653.497 2180.86 653.51C2216.46 653.51 2244.79 665.023 2265.86 688.05C2286.93 711.077 2297.45 743.337 2297.44 784.83L2296.95 789.73H2108.34C2109.01 813.25 2116.85 832.197 2131.86 846.57C2146.87 860.943 2164.84 868.13 2185.76 868.13C2214.5 868.13 2237.04 853.757 2253.38 825.01L2293.56 844.61C2283.31 864.305 2267.79 880.761 2248.72 892.14C2229.61 903.567 2207.97 909.283 2183.8 909.29ZM2111.8 752.49H2249.44C2248.11 735.823 2241.33 722.02 2229.1 711.08C2216.87 700.14 2200.46 694.67 2179.86 694.67C2162.87 694.67 2148.25 699.897 2136 710.35C2123.75 720.803 2115.67 734.85 2111.75 752.49" fill="#00C6FF"/>
<path d="M389.06 550.61H436.1L342.51 901.45H296.45L220.99 670.17H219.03L143.57 901.45H97.5099L0 550.61H47.0399L121.03 826.48H122.99L198.94 597.65H241.08L317.03 826.48H318.99L389.06 550.61Z" fill="#00C6FF"/>
<path d="M964.08 269.32C964.08 343 906.44 397.2 835.76 397.2C765.08 397.2 707.44 343 707.44 269.32C707.44 195.21 765.07 141.44 835.78 141.44C906.49 141.44 964.1 195.21 964.1 269.32M907.93 269.32C907.93 223.32 874.52 191.82 835.78 191.82C797.04 191.82 763.62 223.3 763.62 269.32C763.62 314.85 797.03 346.82 835.78 346.82C874.53 346.82 907.93 314.82 907.93 269.32Z" fill="#00C6FF"/>
<path d="M1244.03 269.32C1244.03 343 1186.44 397.2 1115.71 397.2C1044.98 397.2 987.38 343 987.38 269.32C987.38 195.21 1045 141.44 1115.71 141.44C1186.42 141.44 1244.03 195.21 1244.03 269.32ZM1187.86 269.32C1187.86 223.32 1154.45 191.82 1115.71 191.82C1076.97 191.82 1043.55 223.3 1043.55 269.32C1043.55 314.85 1076.96 346.82 1115.71 346.82C1154.46 346.82 1187.86 314.82 1187.86 269.32Z" fill="#00C6FF"/>
<path d="M1512.37 149.19V378.79C1512.37 473.25 1456.68 512 1390.82 512C1328.82 512 1291.54 470.34 1277.5 436.44L1326.44 416.09C1335.15 436.92 1356.44 461.62 1390.85 461.62C1432.98 461.62 1459.13 435.46 1459.13 386.54V368.14H1457.19C1444.6 383.64 1420.39 397.2 1389.88 397.2C1325.95 397.2 1267.36 341.49 1267.36 269.81C1267.36 197.63 1325.95 141.44 1389.88 141.44C1420.39 141.44 1444.6 155 1457.19 170.02H1459.13V149.19H1512.37ZM1462.97 269.81C1462.97 224.76 1432.97 191.81 1394.69 191.81C1355.95 191.81 1323.5 224.75 1323.5 269.81C1323.5 314.37 1355.95 346.81 1394.69 346.81C1432.95 346.81 1462.97 314.36 1462.97 269.81Z" fill="#00C6FF"/>
<path d="M1607.51 14.8198H1551.34V389.45H1607.51V14.8198Z" fill="#00C6FF"/>
<path d="M1824.44 311.46L1868.02 340.52C1854.02 361.35 1820.08 397.2 1761.48 397.2C1688.84 397.2 1634.6 341.01 1634.6 269.32C1634.6 193.32 1689.33 141.44 1755.18 141.44C1821.53 141.44 1853.97 194.24 1864.63 222.82L1870.44 237.35L1699.44 308.07C1712.52 333.74 1732.86 346.82 1761.44 346.82C1790.02 346.82 1809.87 332.82 1824.44 311.46ZM1690.29 265.46L1804.58 218C1798.28 202 1779.4 190.88 1757.12 190.88C1728.55 190.88 1688.84 216.07 1690.29 265.48" fill="#00C6FF"/>
</svg>
