<svg width="253" height="178" viewBox="0 0 253 178" fill="none" xmlns="http://www.w3.org/2000/svg">
<path d="M247.614 27.6448C244.706 16.7645 236.136 8.19396 225.255 5.28561C205.535 -1.33991e-06 126.45 0 126.45 0C126.45 0 47.3654 -1.33991e-06 27.6448 5.28561C16.7645 8.19396 8.19396 16.7645 5.28561 27.6448C0 47.3654 0 88.515 0 88.515C0 88.515 0 129.665 5.28561 149.385C8.19396 160.266 16.7645 168.836 27.6448 171.744C47.3654 177.03 126.45 177.03 126.45 177.03C126.45 177.03 205.535 177.03 225.255 171.744C236.136 168.836 244.706 160.266 247.614 149.385C252.9 129.665 252.9 88.515 252.9 88.515C252.9 88.515 252.9 47.3654 247.614 27.6448ZM101.16 126.45V50.58L166.863 88.515L101.16 126.45Z" fill="#00C6FF"/>
</svg>
